<?xml version="1.0" encoding="UTF-8"?>
<!DOCTYPE svg PUBLIC "-//W3C//DTD SVG 1.1//EN" "http://www.w3.org/Graphics/SVG/1.1/DTD/svg11.dtd">
<svg xmlns="http://www.w3.org/2000/svg" version="1.1" width="201px" height="196px" style="shape-rendering:geometricPrecision; text-rendering:geometricPrecision; image-rendering:optimizeQuality; fill-rule:evenodd; clip-rule:evenodd" xmlns:xlink="http://www.w3.org/1999/xlink">
<g><path style="opacity:1" fill="#0a0a0a" d="M 193.5,30.5 C 193.672,31.4916 193.338,32.1583 192.5,32.5C 189.847,31.3244 187.181,30.4911 184.5,30C 187.312,31.9773 189.978,34.144 192.5,36.5C 194.817,41.4878 194.65,46.4878 192,51.5C 188.72,55.6581 186.387,60.3247 185,65.5C 183.871,67.1412 182.371,68.1412 180.5,68.5C 179.833,65.1667 179.167,61.8333 178.5,58.5C 176.316,63.195 172.982,66.8617 168.5,69.5C 166.692,68.0821 166.025,66.0821 166.5,63.5C 166.326,61.139 165.993,58.8056 165.5,56.5C 158.518,55.6012 151.518,55.4346 144.5,56C 140.658,56.7206 137.324,58.3872 134.5,61C 137.679,59.9331 141.012,59.0998 144.5,58.5C 145.492,58.3284 146.158,58.6618 146.5,59.5C 137.54,65.0861 133.706,73.0861 135,83.5C 136.36,86.0226 138.193,88.0226 140.5,89.5C 137.779,89.0372 135.112,88.3705 132.5,87.5C 132.167,87.5 131.833,87.5 131.5,87.5C 131.167,86.5 130.5,85.8333 129.5,85.5C 128.167,85.8333 128.167,86.1667 129.5,86.5C 129.833,87.5 130.5,88.1667 131.5,88.5C 131.833,88.5 132.167,88.5 132.5,88.5C 134.838,90.0395 137.505,90.7062 140.5,90.5C 148.004,90.9343 155.337,92.2676 162.5,94.5C 163.231,89.3374 164.397,84.3374 166,79.5C 169.737,82.6392 171.57,86.6392 171.5,91.5C 171.263,92.791 171.596,93.791 172.5,94.5C 173.167,94.5 173.5,94.1667 173.5,93.5C 173.5,91.5 173.5,89.5 173.5,87.5C 173.192,85.076 173.526,82.7427 174.5,80.5C 176.197,81.3636 177.363,82.6969 178,84.5C 179.274,88.9901 180.941,93.3234 183,97.5C 185.596,111.07 180.096,119.07 166.5,121.5C 164.5,121 162.5,120.5 160.5,120C 154.391,115.612 147.724,112.279 140.5,110C 135.5,109.333 130.5,109.333 125.5,110C 112.5,116 99.5,116 86.5,110C 84.2528,108.723 82.2528,107.223 80.5,105.5C 80.0269,104.094 79.0269,103.427 77.5,103.5C 74.8852,101.621 72.7186,99.2879 71,96.5C 73.2372,102.093 77.0705,106.593 82.5,110C 87.2928,112.732 92.2928,114.899 97.5,116.5C 101.167,117.167 104.833,117.833 108.5,118.5C 93.3076,137.488 94.3076,155.655 111.5,173C 115.802,175.985 120.469,178.151 125.5,179.5C 126.167,180.167 126.833,180.833 127.5,181.5C 124.454,184.357 120.787,186.19 116.5,187C 98.7258,190.219 82.2258,187.052 67,177.5C 66.3333,178.167 66.3333,178.833 67,179.5C 69.3722,181.703 71.5389,184.037 73.5,186.5C 72.791,187.404 71.791,187.737 70.5,187.5C 44.8613,182.694 29.6946,167.361 25,141.5C 24.4715,146.854 24.6381,152.187 25.5,157.5C 25.5,158.167 25.1667,158.5 24.5,158.5C 16.2358,150.302 11.4025,140.302 10,128.5C 8.4496,116.101 9.9496,104.101 14.5,92.5C 14.1543,91.3044 13.6543,91.3044 13,92.5C 11.4867,95.5266 9.98672,98.5266 8.5,101.5C 7.83333,101.833 7.16667,102.167 6.5,102.5C 6.04839,68.9258 21.3817,45.5924 52.5,32.5C 56.4295,33.4328 60.4295,33.7662 64.5,33.5C 65.4734,33.0133 66.4734,32.5133 67.5,32C 64.5184,31.502 61.5184,31.3354 58.5,31.5C 48.889,28.8807 43.5556,22.5474 42.5,12.5C 42.7576,9.73975 43.7576,7.40642 45.5,5.5C 62.6211,12.3989 80.2877,14.5656 98.5,12C 108.526,8.19413 118.859,6.8608 129.5,8C 141.771,12.5679 154.438,15.2346 167.5,16C 176.268,18.0515 184.268,21.7182 191.5,27C 192.823,27.8159 193.489,28.9826 193.5,30.5 Z M 122.5,16.5 C 125.697,16.0074 128.697,17.0074 131.5,19.5C 132.429,20.6888 132.762,22.0222 132.5,23.5C 129.572,23.1484 126.738,22.4817 124,21.5C 123.667,21.8333 123.333,22.1667 123,22.5C 122.775,20.2091 122.608,18.2091 122.5,16.5 Z M 135.5,22.5 C 137.099,22.2322 138.432,22.5655 139.5,23.5C 138.391,23.5569 137.391,23.8902 136.5,24.5C 135.508,24.6716 134.842,24.3382 134.5,23.5C 135.167,23.5 135.5,23.1667 135.5,22.5 Z"/></g>
<g><path style="opacity:0.58" fill="#888888" d="M 135.5,22.5 C 137.364,21.2072 139.364,21.2072 141.5,22.5C 141.043,23.2975 140.376,23.6309 139.5,23.5C 138.432,22.5655 137.099,22.2322 135.5,22.5 Z"/></g>
<g><path style="opacity:0.541" fill="#7b7b7b" d="M 134.5,23.5 C 134.842,24.3382 135.508,24.6716 136.5,24.5C 135.614,25.7759 134.614,25.7759 133.5,24.5C 133.624,23.8933 133.957,23.56 134.5,23.5 Z"/></g>
<g><path style="opacity:0.188" fill="#d3d3d3" d="M 58.5,31.5 C 61.5184,31.3354 64.5184,31.502 67.5,32C 66.4734,32.5133 65.4734,33.0133 64.5,33.5C 62.5,32.8333 60.5,32.1667 58.5,31.5 Z"/></g>
<g><path style="opacity:0.125" fill="#d3d3d3" d="M 193.5,30.5 C 194.776,31.3864 194.776,32.3864 193.5,33.5C 192.893,33.3764 192.56,33.0431 192.5,32.5C 193.338,32.1583 193.672,31.4916 193.5,30.5 Z"/></g>
<g><path style="opacity:0.31" fill="#b5b5b5" d="M 144.5,58.5 C 145.386,57.2241 146.386,57.2241 147.5,58.5C 147.376,59.1067 147.043,59.44 146.5,59.5C 146.158,58.6618 145.492,58.3284 144.5,58.5 Z"/></g>
<g><path style="opacity:0.025" fill="#e4e4e4" d="M 178.5,58.5 C 179.167,61.8333 179.833,65.1667 180.5,68.5C 180.44,69.0431 180.107,69.3764 179.5,69.5C 178.511,65.8927 178.177,62.226 178.5,58.5 Z"/></g>
<g><path style="opacity:0.22" fill="#b9b9b9" d="M 132.5,64.5 C 131.878,65.6266 131.045,66.6266 130,67.5C 129.481,65.5106 130.314,64.5106 132.5,64.5 Z"/></g>
<g><path style="opacity:0.361" fill="#cecece" d="M 166.5,63.5 C 166.025,66.0821 166.692,68.0821 168.5,69.5C 167.791,70.404 166.791,70.7373 165.5,70.5C 165.198,67.9407 165.532,65.6074 166.5,63.5 Z"/></g>
<g><path style="opacity:0.294" fill="#a3a3a3" d="M 66.5,84.5 C 65.2353,83.4855 64.5687,81.9855 64.5,80C 64.6667,78.5 64.8333,77 65,75.5C 65.5022,78.5131 66.0022,81.5131 66.5,84.5 Z"/></g>
<g><path style="opacity:0.196" fill="#b9b9b9" d="M 65.5,85.5 C 66.8333,85.5 67.5,86.1667 67.5,87.5C 66.8333,87.5 66.5,87.8333 66.5,88.5C 65.596,87.791 65.2627,86.791 65.5,85.5 Z"/></g>
<g><path style="opacity:0.027" fill="#e6e6e6" d="M 129.5,85.5 C 130.5,85.8333 131.167,86.5 131.5,87.5C 131.5,87.8333 131.5,88.1667 131.5,88.5C 130.5,88.1667 129.833,87.5 129.5,86.5C 129.5,86.1667 129.5,85.8333 129.5,85.5 Z"/></g>
<g><path style="opacity:0.016" fill="#cbcbcb" d="M 132.5,87.5 C 135.112,88.3705 137.779,89.0372 140.5,89.5C 140.5,89.8333 140.5,90.1667 140.5,90.5C 137.505,90.7062 134.838,90.0395 132.5,88.5C 132.5,88.1667 132.5,87.8333 132.5,87.5 Z"/></g>
<g><path style="opacity:0.086" fill="#c3c3c3" d="M 67.5,88.5 C 68.3382,88.8417 68.6716,89.5084 68.5,90.5C 67.8333,90.5 67.5,90.8333 67.5,91.5C 66.6618,91.1583 66.3284,90.4916 66.5,89.5C 67.1667,89.5 67.5,89.1667 67.5,88.5 Z"/></g>
<g><path style="opacity:0.157" fill="#a9a9a9" d="M 173.5,87.5 C 173.5,89.5 173.5,91.5 173.5,93.5C 172.833,93.5 172.5,93.8333 172.5,94.5C 171.596,93.791 171.263,92.791 171.5,91.5C 172.167,90.1667 172.833,88.8333 173.5,87.5 Z"/></g>
<g><path style="opacity:0.008" fill="#d3d3d3" d="M 8.5,101.5 C 8.71901,102.675 8.38568,103.675 7.5,104.5C 6.70245,104.043 6.36912,103.376 6.5,102.5C 7.16667,102.167 7.83333,101.833 8.5,101.5 Z"/></g>
<g><path style="opacity:0.847" fill="#7f7f7f" d="M 77.5,103.5 C 79.0269,103.427 80.0269,104.094 80.5,105.5C 78.9731,105.573 77.9731,104.906 77.5,103.5 Z"/></g>
<g><path style="opacity:0.103" fill="#c9c9c9" d="M 97.5,116.5 C 101.846,116.334 106.179,116.501 110.5,117C 109.956,117.717 109.289,118.217 108.5,118.5C 104.833,117.833 101.167,117.167 97.5,116.5 Z"/></g>
<g><path style="opacity:0.204" fill="#d6d6d6" d="M 25.5,157.5 C 26.0431,157.56 26.3764,157.893 26.5,158.5C 25.7435,159.773 25.0768,159.773 24.5,158.5C 25.1667,158.5 25.5,158.167 25.5,157.5 Z"/></g>
<g><path style="opacity:0.361" fill="#9c9c9c" d="M 125.5,179.5 C 126.675,179.281 127.675,179.614 128.5,180.5C 128.376,181.107 128.043,181.44 127.5,181.5C 126.833,180.833 126.167,180.167 125.5,179.5 Z"/></g>
<g><path style="opacity:0.588" fill="#959595" d="M 73.5,186.5 C 74.7562,186.461 75.7562,186.961 76.5,188C 74.2884,188.789 72.2884,188.622 70.5,187.5C 71.791,187.737 72.791,187.404 73.5,186.5 Z"/></g>
</svg>
